<svg width="135" height="42" viewBox="0 0 135 42" fill="none" xmlns="http://www.w3.org/2000/svg">
<g opacity="0.9">
<mask id="mask0_389_1072" style="mask-type:luminance" maskUnits="userSpaceOnUse" x="24" y="19" width="11" height="13">
<path d="M34.639 19.9861H24.21V31.609H34.639V19.9861Z" fill="white"/>
</mask>
<g mask="url(#mask0_389_1072)">
<mask id="mask1_389_1072" style="mask-type:luminance" maskUnits="userSpaceOnUse" x="24" y="20" width="11" height="12">
<path d="M34.6018 31.591L27.909 20.0004C26.9897 22.319 25.7565 24.4842 24.2685 26.4371C27.2596 28.8376 30.7698 30.6186 34.6018 31.591Z" fill="white"/>
</mask>
<g mask="url(#mask1_389_1072)">
<path d="M-2.02473 1.91655H38.3659V40.0717H-2.02473V1.91655Z" fill="#1191DA"/>
</g>
</g>
<mask id="mask2_389_1072" style="mask-type:luminance" maskUnits="userSpaceOnUse" x="1" y="26" width="19" height="12">
<path d="M19.7334 26.4218H1.44078V37.2292H19.7334V26.4218Z" fill="white"/>
</mask>
<g mask="url(#mask2_389_1072)">
<mask id="mask3_389_1072" style="mask-type:luminance" maskUnits="userSpaceOnUse" x="1" y="26" width="19" height="12">
<path d="M19.6526 31.157C17.9154 29.7613 16.2681 28.2525 14.9139 26.4783C11.9516 28.8465 8.48184 30.608 4.69367 31.5723L1.47649 37.1461C1.85946 37.1623 2.24127 37.1704 2.62309 37.1704C9.03092 37.1704 15.0027 34.8633 19.6491 31.1536L19.6526 31.157Z" fill="white"/>
</mask>
<g mask="url(#mask3_389_1072)">
<path d="M-2.02229 1.91753H38.3684V40.0727H-2.02229V1.91753Z" fill="#066FAA"/>
</g>
</g>
<mask id="mask4_389_1072" style="mask-type:luminance" maskUnits="userSpaceOnUse" x="14" y="21" width="11" height="11">
<path d="M24.2807 21.5881H14.8402V31.1774H24.2807V21.5881Z" fill="white"/>
</mask>
<g mask="url(#mask4_389_1072)">
<mask id="mask5_389_1072" style="mask-type:luminance" maskUnits="userSpaceOnUse" x="14" y="21" width="11" height="11">
<path d="M19.6484 21.6571C18.2861 23.4519 16.6712 25.0669 14.9097 26.4742C16.2605 28.2483 17.9077 29.7571 19.6484 31.1529C21.4052 29.7502 22.9037 28.2287 24.266 26.4373C22.5241 25.0415 20.9992 23.4346 19.6484 21.6605V21.6559V21.6571Z" fill="white"/>
</mask>
<g mask="url(#mask5_389_1072)">
<path d="M-2.02673 1.9155H38.3639V40.0706H-2.02673V1.9155Z" fill="#0C89D1"/>
</g>
</g>
<mask id="mask6_389_1072" style="mask-type:luminance" maskUnits="userSpaceOnUse" x="19" y="13" width="9" height="14">
<path d="M27.9315 13.1652H19.6434V26.508H27.9315V13.1652Z" fill="white"/>
</mask>
<g mask="url(#mask6_389_1072)">
<mask id="mask7_389_1072" style="mask-type:luminance" maskUnits="userSpaceOnUse" x="19" y="13" width="9" height="14">
<path d="M19.65 21.6576C21.0008 23.4352 22.5304 25.0386 24.2676 26.4343C25.7568 24.4768 26.9888 22.3162 27.9081 19.9977L23.9619 13.1665C23.0137 16.2718 21.5661 19.1348 19.6489 21.6576H19.65Z" fill="white"/>
</mask>
<g mask="url(#mask7_389_1072)">
<path d="M-2.02536 1.91562H38.3653V40.0708H-2.02536V1.91562Z" fill="#0CA4FF"/>
</g>
</g>
<mask id="mask8_389_1072" style="mask-type:luminance" maskUnits="userSpaceOnUse" x="4" y="20" width="11" height="12">
<path d="M14.9628 20.0986H4.67912V31.5751H14.9628V20.0986Z" fill="white"/>
</mask>
<g mask="url(#mask8_389_1072)">
<mask id="mask9_389_1072" style="mask-type:luminance" maskUnits="userSpaceOnUse" x="4" y="20" width="11" height="12">
<path d="M4.69398 31.5722C8.48216 30.6044 11.9485 28.8465 14.9142 26.4783C13.4412 24.5461 12.2254 22.4132 11.306 20.1281L4.69398 31.5722Z" fill="white"/>
</mask>
<g mask="url(#mask9_389_1072)">
<path d="M-2.02411 1.9166H38.3666V40.0717H-2.02411V1.9166Z" fill="#1090D7"/>
</g>
</g>
<mask id="mask10_389_1072" style="mask-type:luminance" maskUnits="userSpaceOnUse" x="11" y="13" width="9" height="14">
<path d="M19.7334 13.1649H11.24V26.5077H19.7334V13.1649Z" fill="white"/>
</mask>
<g mask="url(#mask10_389_1072)">
<mask id="mask11_389_1072" style="mask-type:luminance" maskUnits="userSpaceOnUse" x="11" y="13" width="9" height="14">
<path d="M19.6511 21.6587C17.7467 19.1567 16.2309 16.3132 15.277 13.2379L11.3031 20.1256C12.2224 22.4108 13.4429 24.5436 14.9113 26.4758C16.6681 25.0731 18.2877 23.4535 19.65 21.6587H19.6511Z" fill="white"/>
</mask>
<g mask="url(#mask11_389_1072)">
<path d="M-2.02391 1.91623H38.3668V40.0714H-2.02391V1.91623Z" fill="#0CA4FF"/>
</g>
</g>
<mask id="mask12_389_1072" style="mask-type:luminance" maskUnits="userSpaceOnUse" x="15" y="5" width="10" height="17">
<path d="M24.0424 5.67152H15.2802V21.6674H24.0424V5.67152Z" fill="white"/>
</mask>
<g mask="url(#mask12_389_1072)">
<mask id="mask13_389_1072" style="mask-type:luminance" maskUnits="userSpaceOnUse" x="15" y="5" width="9" height="17">
<path d="M15.2826 13.2413C16.2354 16.3177 17.7523 19.1565 19.6568 21.6631C21.5728 19.1404 23.0262 16.2762 23.9733 13.172L19.6487 5.68221L15.2826 13.2413Z" fill="white"/>
</mask>
<g mask="url(#mask13_389_1072)">
<path d="M-2.02048 1.91615H38.3702V40.0713H-2.02048V1.91615Z" fill="#76C6FF"/>
</g>
</g>
<path d="M46.8482 27.5858C44.8662 27.5858 43.2861 27.1744 42.1082 26.3517C40.9302 25.5102 40.2851 24.3509 40.1729 22.8738H43.3983C43.4918 23.603 43.8378 24.1546 44.4361 24.5286C45.0344 24.9025 45.8385 25.0895 46.8482 25.0895C47.7644 25.0895 48.4469 24.9493 48.8957 24.6688C49.3631 24.3696 49.5969 23.9489 49.5969 23.4067C49.5969 23.014 49.466 22.6961 49.2042 22.453C48.9424 22.1913 48.4469 21.9762 47.7177 21.808L45.4178 21.2751C43.8471 20.9385 42.6785 20.4149 41.9118 19.7044C41.1639 18.9751 40.7899 18.0683 40.7899 16.9838C40.7899 15.6562 41.2948 14.6184 42.3045 13.8705C43.3329 13.1039 44.7446 12.7205 46.5397 12.7205C48.316 12.7205 49.7371 13.1039 50.8029 13.8705C51.8874 14.6184 52.4858 15.6562 52.5979 16.9838H49.3725C49.279 16.4041 48.9798 15.9647 48.475 15.6655C47.9888 15.3664 47.3157 15.2168 46.4555 15.2168C45.6515 15.2168 45.0438 15.3477 44.6324 15.6094C44.2211 15.8525 44.0154 16.2171 44.0154 16.7033C44.0154 17.0773 44.1743 17.3951 44.4922 17.6569C44.8101 17.9 45.343 18.115 46.0909 18.302L48.5591 18.863C49.9615 19.1808 51.0179 19.7324 51.7285 20.5178C52.4577 21.3031 52.8223 22.2287 52.8223 23.2945C52.8223 24.6595 52.2988 25.7159 51.2517 26.4639C50.2046 27.2118 48.7367 27.5858 46.8482 27.5858ZM64.965 27.3053C64.8715 26.9313 64.7967 26.52 64.7406 26.0712C64.7032 25.6224 64.6845 25.0802 64.6845 24.4444H64.5723V17.6569C64.5723 16.909 64.3573 16.348 63.9272 15.9741C63.5158 15.5814 62.8801 15.3851 62.02 15.3851C61.1785 15.3851 60.5054 15.544 60.0005 15.8619C59.5144 16.161 59.2152 16.6005 59.103 17.1801H55.7093C55.8588 15.8525 56.4946 14.7774 57.6165 13.9546C58.7384 13.1319 60.2436 12.7205 62.1322 12.7205C64.0955 12.7205 65.582 13.1693 66.5917 14.0668C67.6014 14.9456 68.1063 16.2452 68.1063 17.9654V24.4444C68.1063 24.8932 68.1343 25.3513 68.1904 25.8188C68.2652 26.2862 68.3681 26.7817 68.499 27.3053H64.965ZM60.0005 27.5858C58.5608 27.5858 57.4108 27.2305 56.5507 26.52C55.7093 25.7907 55.2885 24.8184 55.2885 23.603C55.2885 22.2941 55.7654 21.2564 56.719 20.4897C57.6726 19.7231 59.0189 19.2089 60.7578 18.9471L65.2174 18.274V20.5178L61.3468 21.1068C60.5054 21.2377 59.8697 21.4714 59.4396 21.808C59.0282 22.1445 58.8225 22.612 58.8225 23.2103C58.8225 23.7526 59.0189 24.1733 59.4115 24.4725C59.8042 24.753 60.3465 24.8932 61.0383 24.8932C62.048 24.8932 62.8894 24.6408 63.5626 24.1359C64.2357 23.631 64.5723 23.014 64.5723 22.2848L64.965 24.4444C64.591 25.4728 63.9739 26.2582 63.1138 26.8004C62.2724 27.324 61.2346 27.5858 60.0005 27.5858ZM75.4076 27.3053L69.6859 13.001H73.5004L78.0722 26.1553H76.193L80.7647 13.001H84.467L78.7173 27.3053H75.4076ZM95.2575 27.3053C95.164 26.9313 95.0892 26.52 95.0331 26.0712C94.9957 25.6224 94.977 25.0802 94.977 24.4444H94.8648V17.6569C94.8648 16.909 94.6498 16.348 94.2197 15.9741C93.8083 15.5814 93.1726 15.3851 92.3125 15.3851C91.471 15.3851 90.7979 15.544 90.293 15.8619C89.8069 16.161 89.5077 16.6005 89.3955 17.1801H86.0017C86.1513 15.8525 86.7871 14.7774 87.909 13.9546C89.0309 13.1319 90.5361 12.7205 92.4246 12.7205C94.388 12.7205 95.8745 13.1693 96.8842 14.0668C97.8939 14.9456 98.3988 16.2452 98.3988 17.9654V24.4444C98.3988 24.8932 98.4268 25.3513 98.4829 25.8188C98.5577 26.2862 98.6606 26.7817 98.7914 27.3053H95.2575ZM90.293 27.5858C88.8533 27.5858 87.7033 27.2305 86.8432 26.52C86.0017 25.7907 85.581 24.8184 85.581 23.603C85.581 22.2941 86.0578 21.2564 87.0115 20.4897C87.9651 19.7231 89.3114 19.2089 91.0503 18.9471L95.5099 18.274V20.5178L91.6393 21.1068C90.7979 21.2377 90.1621 21.4714 89.7321 21.808C89.3207 22.1445 89.115 22.612 89.115 23.2103C89.115 23.7526 89.3114 24.1733 89.704 24.4725C90.0967 24.753 90.6389 24.8932 91.3308 24.8932C92.3405 24.8932 93.1819 24.6408 93.8551 24.1359C94.5282 23.631 94.8648 23.014 94.8648 22.2848L95.2575 24.4444C94.8835 25.4728 94.2664 26.2582 93.4063 26.8004C92.5649 27.324 91.5271 27.5858 90.293 27.5858ZM102.539 27.3053V13.001H105.989V16.4509H106.073V27.3053H102.539ZM106.073 19.8446L105.708 16.4509C106.045 15.2355 106.615 14.3099 107.419 13.6742C108.223 13.0384 109.186 12.7205 110.308 12.7205C110.701 12.7205 110.981 12.7579 111.15 12.8327V16.1704C111.056 16.133 110.925 16.1143 110.757 16.1143C110.589 16.0956 110.383 16.0862 110.14 16.0862C108.775 16.0862 107.756 16.3854 107.083 16.9838C106.41 17.5821 106.073 18.5357 106.073 19.8446ZM120.808 27.5858C119.05 27.5858 117.751 27.1744 116.909 26.3517C116.086 25.5102 115.675 24.2574 115.675 22.5933V9.74749L119.237 8.42926V22.6774C119.237 23.3693 119.424 23.8835 119.798 24.22C120.172 24.5566 120.761 24.7249 121.565 24.7249C121.883 24.7249 122.163 24.7062 122.406 24.6688C122.668 24.6127 122.911 24.5473 123.136 24.4725V27.2211C122.911 27.3333 122.593 27.4175 122.182 27.4736C121.771 27.5484 121.313 27.5858 120.808 27.5858ZM112.926 15.7777V13.001H123.136V15.7777H112.926Z" fill="white"/>
<path d="M81.3615 38.6947V32.1938H83.5192C84.2385 32.1938 84.8471 32.3198 85.345 32.5719C85.843 32.8178 86.221 33.1836 86.4792 33.6692C86.7374 34.1487 86.8665 34.7389 86.8665 35.4397C86.8665 36.1343 86.7374 36.7245 86.4792 37.2101C86.221 37.6958 85.843 38.0646 85.345 38.3167C84.8471 38.5687 84.2385 38.6947 83.5192 38.6947H81.3615ZM82.1269 38.04H83.4639C84.3491 38.04 85.0069 37.8249 85.4372 37.3945C85.8676 36.9581 86.0827 36.3064 86.0827 35.4397C86.0827 34.5667 85.8676 33.9151 85.4372 33.4848C85.0069 33.0545 84.3491 32.8393 83.4639 32.8393H82.1269V38.04ZM88.1489 38.6947V35.1815C88.1489 34.997 88.1428 34.8095 88.1305 34.619C88.1243 34.4284 88.112 34.244 88.0936 34.0657H88.8128L88.905 35.1907L88.7759 35.1999C88.8374 34.9233 88.945 34.6958 89.0987 34.5175C89.2524 34.3393 89.4337 34.2071 89.6427 34.121C89.8517 34.0288 90.07 33.9827 90.2974 33.9827C90.3896 33.9827 90.4696 33.9858 90.5372 33.9919C90.6109 33.9981 90.6786 34.0135 90.74 34.038L90.7308 34.702C90.6386 34.6712 90.5525 34.6528 90.4726 34.6466C90.3989 34.6343 90.3128 34.6282 90.2144 34.6282C89.9439 34.6282 89.7073 34.6927 89.5044 34.8218C89.3077 34.9509 89.1571 35.1169 89.0526 35.3198C88.9542 35.5226 88.905 35.7378 88.905 35.9653V38.6947H88.1489ZM93.5195 38.7777C92.7941 38.7777 92.2224 38.5687 91.8044 38.1507C91.3863 37.7265 91.1773 37.1394 91.1773 36.3894C91.1773 35.9038 91.2695 35.4827 91.454 35.1261C91.6384 34.7634 91.8966 34.4837 92.2285 34.287C92.5605 34.0842 92.9416 33.9827 93.3719 33.9827C93.7961 33.9827 94.1527 34.0719 94.4416 34.2501C94.7305 34.4284 94.9518 34.6835 95.1055 35.0155C95.2592 35.3413 95.336 35.7286 95.336 36.1773V36.454H91.749V35.9837H94.8473L94.6906 36.1036C94.6906 35.6118 94.5799 35.2276 94.3586 34.9509C94.1373 34.6743 93.8084 34.536 93.3719 34.536C92.9109 34.536 92.5513 34.6989 92.2931 35.0247C92.0349 35.3444 91.9058 35.7778 91.9058 36.3249V36.4079C91.9058 36.9857 92.0472 37.4253 92.33 37.7265C92.6189 38.0216 93.0215 38.1691 93.5379 38.1691C93.8146 38.1691 94.0728 38.1292 94.3125 38.0492C94.5584 37.9632 94.792 37.8249 95.0133 37.6343L95.2715 38.1599C95.0686 38.3566 94.8104 38.5103 94.4969 38.6209C94.1896 38.7255 93.8637 38.7777 93.5195 38.7777ZM98.2402 38.7777C97.8283 38.7777 97.4687 38.6824 97.1613 38.4919C96.854 38.2951 96.6142 38.0185 96.4421 37.662C96.2761 37.3054 96.1931 36.8782 96.1931 36.3802C96.1931 35.8761 96.2761 35.4458 96.4421 35.0893C96.6142 34.7327 96.854 34.4591 97.1613 34.2686C97.4687 34.078 97.8283 33.9827 98.2402 33.9827C98.6582 33.9827 99.0178 34.0903 99.3191 34.3055C99.6264 34.5145 99.8293 34.8003 99.9277 35.163H99.817L99.9184 34.0657H100.638C100.619 34.244 100.601 34.4253 100.582 34.6098C100.57 34.788 100.564 34.9632 100.564 35.1354V38.6947H99.817V37.6066H99.9184C99.8201 37.9693 99.6172 38.2552 99.3099 38.4642C99.0025 38.6732 98.6459 38.7777 98.2402 38.7777ZM98.3877 38.1691C98.8304 38.1691 99.1808 38.0185 99.4389 37.7173C99.6971 37.4099 99.8262 36.9642 99.8262 36.3802C99.8262 35.7901 99.6971 35.3444 99.4389 35.0432C99.1808 34.7358 98.8304 34.5821 98.3877 34.5821C97.9513 34.5821 97.6009 34.7358 97.3365 35.0432C97.0783 35.3444 96.9492 35.7901 96.9492 36.3802C96.9492 36.9642 97.0783 37.4099 97.3365 37.7173C97.6009 38.0185 97.9513 38.1691 98.3877 38.1691ZM102.008 38.6947V35.1354C102.008 34.9632 101.999 34.788 101.98 34.6098C101.968 34.4253 101.953 34.244 101.934 34.0657H102.654L102.746 35.08H102.635C102.758 34.7296 102.952 34.4591 103.216 34.2686C103.486 34.078 103.812 33.9827 104.193 33.9827C104.581 33.9827 104.894 34.0749 105.134 34.2594C105.38 34.4438 105.546 34.7296 105.632 35.1169H105.494C105.61 34.7665 105.816 34.4899 106.111 34.287C106.407 34.0842 106.751 33.9827 107.144 33.9827C107.654 33.9827 108.039 34.1303 108.297 34.4253C108.555 34.7143 108.684 35.1722 108.684 35.7993V38.6947H107.937V35.8454C107.937 35.4089 107.86 35.0923 107.707 34.8956C107.553 34.6927 107.307 34.5913 106.969 34.5913C106.582 34.5913 106.274 34.7266 106.047 34.997C105.826 35.2614 105.715 35.6179 105.715 36.0667V38.6947H104.968V35.8454C104.968 35.4089 104.891 35.0923 104.737 34.8956C104.584 34.6927 104.338 34.5913 104 34.5913C103.613 34.5913 103.308 34.7266 103.087 34.997C102.866 35.2614 102.755 35.6179 102.755 36.0667V38.6947H102.008ZM114.14 38.7777C113.593 38.7777 113.178 38.6271 112.895 38.3259C112.619 38.0246 112.48 37.5636 112.48 36.9427V34.0657H113.227V36.9243C113.227 37.3484 113.313 37.662 113.485 37.8648C113.657 38.0615 113.925 38.1599 114.288 38.1599C114.693 38.1599 115.019 38.0277 115.265 37.7634C115.511 37.499 115.634 37.1456 115.634 36.703V34.0657H116.381V38.6947H115.652V37.6527H115.772C115.643 38.0093 115.434 38.2859 115.145 38.4826C114.862 38.6793 114.527 38.7777 114.14 38.7777ZM117.83 40.6865V35.1354C117.83 34.9632 117.821 34.788 117.802 34.6098C117.79 34.4253 117.775 34.244 117.756 34.0657H118.475L118.577 35.163H118.466C118.564 34.8003 118.764 34.5145 119.065 34.3055C119.367 34.0903 119.726 33.9827 120.144 33.9827C120.562 33.9827 120.922 34.078 121.223 34.2686C121.531 34.4591 121.77 34.7327 121.942 35.0893C122.115 35.4458 122.201 35.8761 122.201 36.3802C122.201 36.8782 122.115 37.3054 121.942 37.662C121.776 38.0185 121.54 38.2951 121.232 38.4919C120.925 38.6824 120.562 38.7777 120.144 38.7777C119.732 38.7777 119.376 38.6732 119.075 38.4642C118.773 38.2552 118.574 37.9693 118.475 37.6066H118.577V40.6865H117.83ZM119.997 38.1691C120.439 38.1691 120.79 38.0185 121.048 37.7173C121.312 37.4099 121.445 36.9642 121.445 36.3802C121.445 35.7901 121.312 35.3444 121.048 35.0432C120.79 34.7358 120.439 34.5821 119.997 34.5821C119.56 34.5821 119.21 34.7358 118.946 35.0432C118.687 35.3444 118.558 35.7901 118.558 36.3802C118.558 36.9642 118.687 37.4099 118.946 37.7173C119.21 38.0185 119.56 38.1691 119.997 38.1691Z" fill="#9E9E9E"/>
</g>
</svg>
